<mxfile host="app.diagrams.net" modified="2021-03-12T15:58:58.301Z" agent="5.0 (Macintosh)" etag="tk-sjoJBD2ta7RTIGhbF" version="14.4.8" type="github">
  <diagram id="vSBg0Mn_r_9uZsL3jQLC" name="Page-1">
    <mxGraphModel dx="1186" dy="678" grid="1" gridSize="10" guides="1" tooltips="1" connect="1" arrows="1" fold="1" page="1" pageScale="1" pageWidth="850" pageHeight="1100" math="0" shadow="0">
      <root>
        <mxCell id="0" />
        <mxCell id="1" parent="0" />
        <mxCell id="BihIx9SRdo0ob7YcQKbb-1" value="" style="ellipse;whiteSpace=wrap;html=1;aspect=fixed;" vertex="1" parent="1">
          <mxGeometry x="130" y="170" width="80" height="80" as="geometry" />
        </mxCell>
        <mxCell id="BihIx9SRdo0ob7YcQKbb-2" value="" style="shape=step;perimeter=stepPerimeter;whiteSpace=wrap;html=1;fixedSize=1;" vertex="1" parent="1">
          <mxGeometry x="250" y="170" width="120" height="80" as="geometry" />
        </mxCell>
        <mxCell id="BihIx9SRdo0ob7YcQKbb-3" value="Actor" style="shape=umlActor;verticalLabelPosition=bottom;verticalAlign=top;html=1;outlineConnect=0;" vertex="1" parent="1">
          <mxGeometry x="60" y="170" width="30" height="60" as="geometry" />
        </mxCell>
        <mxCell id="BihIx9SRdo0ob7YcQKbb-4" value="" style="endArrow=classic;html=1;" edge="1" parent="1">
          <mxGeometry width="50" height="50" relative="1" as="geometry">
            <mxPoint x="130" y="130" as="sourcePoint" />
            <mxPoint x="180" y="80" as="targetPoint" />
          </mxGeometry>
        </mxCell>
      </root>
    </mxGraphModel>
  </diagram>
</mxfile>
